PathFileType	4	(X/Y/Z)	pose_F01_0-90.trc
DataRate	CameraRate	NumFrames	NumMarkers	Units	OrigDataRate	OrigDataStartFrame	OrigNumFrames
30	30	5	21	m	30	22	90
Frame#	Time	CHip			RHip			RKnee			RAnkle			RBigToe			RSmallToe			RHeel			LHip			LKnee			LAnkle			LBigToe			LSmallToe			LHeel			Neck			Nose			RShoulder			RElbow			RWrist			LShoulder			LElbow			LWrist			
		X1	Y1	Z1	X2	Y2	Z2	X3	Y3	Z3	X4	Y4	Z4	X5	Y5	Z5	X6	Y6	Z6	X7	Y7	Z7	X8	Y8	Z8	X9	Y9	Z9	X10	Y10	Z10	X11	Y11	Z11	X12	Y12	Z12	X13	Y13	Z13	X14	Y14	Z14	X15	Y15	Z15	X16	Y16	Z16	X17	Y17	Z17	X18	Y18	Z18	X19	Y19	Z19	X20	Y20	Z20	X21	Y21	Z21	
22	0.7333333333333333	-0.21934054162192476	1.8787896321508903	-0.5577113178229504	-0.22846727667032007	1.8756479478001118	-0.48692090594835874	-0.2228251611804384	1.7329306117215246	-0.46967249160575736	-0.22390668729090396	1.5843213237979945	-0.43722899693448897	-0.25971542425796035	1.5895219243307244	-0.2806357299020028	-0.25887322229915255	1.6006684810485294	-0.25855841219636067	-0.21884375424773453	1.5752169320010427	-0.4508217809043079	-0.20293720795201053	1.8820525446957443	-0.6263880165776096	-0.1990593110795794	1.7327190108991644	-0.6260586085527485	-0.19574702709802602	1.5722500344499017	-0.6159421688430672	-0.2253302130184829	1.5200657907036021	-0.6143208288513367	-0.21361091699673368	1.5284413776431107	-0.6394662667560004	-0.18658577132186113	1.5623333994580597	-0.603070061405491	-0.20862519260492143	2.052959156500645	-0.5745752570069045	-0.23302747061984727	2.1239652139940572	-0.5667294463939434	-0.22486704841678737	2.047508139891369	-0.4771665159068563	-0.22246805151298257	1.9587673480339376	-0.4536540274383815	-0.2354331509378809	1.8836444969646404	-0.4000017063311457	-0.191160018380747	2.058771079297262	-0.6776178486976246	-0.18119187198141296	1.969175164337367	-0.691449542070272	-0.18102431194094928	1.8859836813665571	-0.7113832525333769
23	0.7666666666666667	-0.2191562931022773	1.8799730914042523	-0.5578552448166664	-0.22820140070477218	1.8753853762363317	-0.4867656138913001	-0.22279058257363357	1.7329782614960727	-0.4695844778505807	-0.22112296514983892	1.5858238590222353	-0.4356894780421868	-0.25971542425796035	1.5895219243307244	-0.2806357299020028	-0.25887322229915255	1.6006684810485294	-0.25855841219636067	-0.21611101984194936	1.5745217863462222	-0.44874164847991926	-0.20273469172621286	1.8832930737321687	-0.6265660455267621	-0.200112058919893	1.7313020003278248	-0.620686268022193	-0.19602557628668224	1.5708457276908008	-0.6153336471050731	-0.2258093257989375	1.5200183464569148	-0.6133043647324011	-0.21170692513686243	1.5298247821549054	-0.6412830583100178	-0.18688711044159445	1.5610901451977721	-0.6024772059102528	-0.20857444724028965	2.052950253423983	-0.5745941430531905	-0.2330376304496613	2.12395930626443	-0.5667486416009158	-0.22477755315041673	2.0461862358988046	-0.4766594898502317	-0.22220251960762458	1.9570549189607083	-0.45293279800998426	-0.2340856579827667	1.8793047957705304	-0.3957827672906205	-0.18907085942172008	2.058789011008218	-0.6798020524847426	-0.17988688999267388	1.9693149030719426	-0.6966247293981958	-0.1809064492866557	1.8872175654874974	-0.7115037020850354
24	0.8	-0.21722201982485048	1.8774405036401174	-0.5597082373873967	-0.22640422755259462	1.8743123341498238	-0.48881617507523095	-0.22462370671973353	1.7315086516904914	-0.46746040452822446	-0.22411921548650587	1.5829810026250528	-0.4366647533914314	-0.25971542425796035	1.5895219243307244	-0.2806357299020028	-0.25887322229915255	1.6006684810485294	-0.25855841219636067	-0.2171531193378912	1.573990436185701	-0.45232483829358183	-0.20389311896100643	1.8808950971519318	-0.6294150200430029	-0.2000793185733414	1.7311304910631107	-0.6207627838448074	-0.1959359872067084	1.5735509702345831	-0.6157867880742991	-0.2253328946374931	1.5201084366068827	-0.6142228745372587	-0.21145625526935496	1.5283534533342276	-0.6415597382924295	-0.1868605034711157	1.563894203382872	-0.6028987918841766	-0.20856957133031542	2.0529668078693017	-0.5746314978198583	-0.23303299611608613	2.1239170404043297	-0.5668080706311528	-0.22475716128722606	2.047552321454139	-0.47724352133047315	-0.22043460339962923	1.9573587371032024	-0.45542268636883454	-0.23415542335402123	1.8806861527495	-0.39601600246161184	-0.18908287516572914	2.058826724216845	-0.6798077891196449	-0.18071133328956912	1.969490396930503	-0.6998283869952707	-0.18101975817712554	1.8886275971451485	-0.7118035686465968
25	0.8333333333333334	-0.21718046303699087	1.880018452012043	-0.5600334656271393	-0.2282654609410437	1.8767803681424515	-0.4870725032035182	-0.22263318330255627	1.7315195344532688	-0.46955827040636267	-0.22411247204137957	1.5829994569843335	-0.4366408708966748	-0.25971542425796035	1.5895219243307244	-0.2806357299020028	-0.25887322229915255	1.6006684810485294	-0.25855841219636067	-0.21904324747459467	1.5737271973269515	-0.45025539226341155	-0.20288182148038797	1.88210512252364	-0.6264693859484902	-0.1981987483893595	1.7298736318610384	-0.6225048441713263	-0.19601872132992354	1.5707332199001536	-0.6154177572476955	-0.2255141811420147	1.5213809100166444	-0.6139730013970008	-0.21171453120208825	1.5299293745465405	-0.6413266912325568	-0.1865982095710258	1.5594618877097528	-0.6028620730130738	-0.2085744245188965	2.052983918316433	-0.5746897991339521	-0.2330438616718028	2.1239096013923837	-0.5668358167938071	-0.22479168229629037	2.047648662673189	-0.47730654804566547	-0.2223144710900509	1.9575736942022772	-0.45328811150853304	-0.23317624261034428	1.8806904589714062	-0.3927201393224509	-0.18905371678093724	2.05875543562282	-0.6798424889178696	-0.17996672197660196	1.9706681797106405	-0.6970348057805694	-0.18122092400983086	1.8873935989722854	-0.7116561730326718
26	0.8666666666666667	-0.21704470813926158	1.8812040614823244	-0.5602650202178928	-0.22607948832480385	1.8791508021062873	-0.4895701416280665	-0.2224008322671613	1.7326940476321624	-0.47002349726736925	-0.2240189059750918	1.5825312179827122	-0.4366694258470583	-0.25971542425796035	1.5895219243307244	-0.2806357299020028	-0.25887322229915255	1.6006684810485294	-0.25855841219636067	-0.2170167485166249	1.5735367250664667	-0.45232581919314696	-0.20360636182225947	1.8833952424725209	-0.6296739079172485	-0.19819508316433596	1.7298466573262852	-0.6226279295952255	-0.19622402064461783	1.572132219431634	-0.6151145118494749	-0.2255593093106483	1.5213617940019402	-0.6139362038312407	-0.21381344781899153	1.5297252866745152	-0.6391002654311437	-0.18709776890349195	1.5624679457011459	-0.6022253407348523	-0.20856210019665117	2.052964785647369	-0.5747198393697143	-0.23392747649063506	2.1240847740505955	-0.5697951254476683	-0.22474726355456862	2.047677279522122	-0.47734263732213766	-0.21944327065049882	1.9574043839519948	-0.45232260219179826	-0.23298461149447885	1.8817818676315967	-0.3929736902863351	-0.18906824262748592	2.058793477454244	-0.6798244118580468	-0.180755900584186	1.9695248763387814	-0.6997081136875422	-0.18178713254994452	1.8886716680653393	-0.7147948046386506
